<?xml version="1.0" encoding="UTF-8"?>
<svg width="167px" height="35px" viewBox="0 0 167 35" version="1.1" xmlns="http://www.w3.org/2000/svg" xmlns:xlink="http://www.w3.org/1999/xlink">
    <title>PrizePicks</title>
    <defs>
        <polygon id="path-1" points="0 0 42.7803149 0 42.7803149 35 0 35"></polygon>
    </defs>
    <g id="PrizePicks-New" stroke="none" stroke-width="1" fill="none" fill-rule="evenodd">
        <g id="Desktop" transform="translate(-27.000000, -23.000000)">
            <g id="PrizePicks" transform="translate(27.000000, 23.000000)">
                <path d="M55.5263207,17.2717057 L53.2680226,17.2717057 L53.2680226,13.3088702 L55.5263207,13.3088702 C57.1453545,13.3088702 57.8268676,13.9053828 57.8268676,15.2900365 C57.8268676,16.6746901 57.1453545,17.2717057 55.5263207,17.2717057 M55.8034526,10.5818118 L50.765285,10.5818118 L50.0722037,10.5818118 L48.8952733,10.5818118 L50.0722037,13.3088702 L50.0722037,25.0691213 L53.2680226,25.0691213 L53.2680226,19.9987642 L55.8034526,19.9987642 C59.4675288,19.9987642 61.0226864,18.6141105 61.0226864,15.3116638 C61.0226864,11.9880927 59.4675288,10.5818118 55.8034526,10.5818118" id="Fill-1" fill="#FFFFFF"></path>
                <path d="M69.1212756,16.9947247 L66.7357281,16.9947247 L66.7357281,13.3090211 L69.1212756,13.3090211 C70.6769362,13.3090211 71.230697,13.8416576 71.230697,15.1624351 C71.230697,16.4620882 70.6769362,16.9947247 69.1212756,16.9947247 M74.4265159,15.1624351 C74.4265159,11.9243675 73.0207378,10.5819626 69.4627866,10.5819626 L64.2329906,10.5819626 L63.5399093,10.5819626 L62.3624759,10.5819626 L63.5399093,13.3090211 L63.5399093,25.0692722 L66.7357281,25.0692722 L66.7357281,19.7217831 L68.4613898,19.7217831 L71.336822,25.0692722 L74.9802767,25.0692722 L71.848334,19.4235268 C73.6594992,18.8908904 74.4265159,17.5273611 74.4265159,15.1624351" id="Fill-3" fill="#FFFFFF"></path>
                <polygon id="Fill-5" fill="#FFFFFF" points="93.8383237 13.0532651 93.8383237 10.5817112 84.3127315 10.5817112 83.6337332 10.5817112 82.4417139 10.5817112 83.6196503 13.3087696 83.6337332 13.3087696 83.6337332 13.330397 89.8754882 13.330397 83.2494705 22.5768454 83.2494705 25.0690207 94.0088277 25.0690207 94.0088277 22.3208378 87.2128089 22.3208378"></polygon>
                <polygon id="Fill-7" fill="#FFFFFF" points="99.8068196 19.0612435 105.473186 19.0612435 105.473186 16.334185 99.8068196 16.334185 99.8068196 13.3299946 106.538459 13.3299946 106.538459 10.5818118 97.3096146 10.5818118 96.6110008 10.5818118 95.4391 10.5818118 96.6110008 13.2957932 96.6110008 25.0691213 106.751715 25.0691213 106.751715 22.3209384 99.8068196 22.3209384"></polygon>
                <path d="M134.986578,13.0745404 C136.690612,13.0745404 137.373131,13.8843087 137.436505,15.8015988 L140.482944,15.8015988 C140.397943,12.0520192 138.650654,10.3263575 134.944329,10.3263575 C131.109246,10.3263575 129.319205,12.1797715 129.319205,16.206483 L129.319205,19.4450536 C129.319205,23.4712622 131.109246,25.3251791 134.944329,25.3251791 C138.650654,25.3251791 140.397943,23.5990145 140.482944,19.8710622 L137.436505,19.8710622 C137.373131,21.7672279 136.690612,22.5764933 134.986578,22.5764933 C133.196537,22.5764933 132.515024,21.6817244 132.515024,19.3806745 L132.515024,16.2703592 C132.515024,13.9693093 133.196537,13.0745404 134.986578,13.0745404" id="Fill-9" fill="#FFFFFF"></path>
                <polygon id="Fill-11" fill="#FFFFFF" points="155.143373 10.5819626 151.479297 10.5819626 146.557816 16.9092212 146.557816 10.5819626 144.052061 10.5819626 143.361997 10.5819626 142.181043 10.5819626 143.35898 13.3090211 143.361997 13.3090211 143.361997 25.0692722 146.557816 25.0692722 146.557816 21.234189 148.26185 19.0613944 151.564297 25.0692722 155.207249 25.0692722 150.4779 16.5259643"></polygon>
                <path d="M162.325163,16.3342353 C160.279618,16.035979 159.534229,15.5460943 159.534229,14.459194 C159.534229,13.5005489 160.215742,12.9256637 161.537022,12.9256637 C162.921676,12.9256637 163.582568,13.564928 163.582568,14.8218294 L166.692883,14.8218294 C166.692883,11.7753902 165.00947,10.3263575 161.600395,10.3263575 C158.149575,10.3263575 156.33841,11.817639 156.33841,14.7790777 C156.33841,17.4206326 157.55256,18.6141608 160.769503,19.1251699 C162.921676,19.466178 163.688693,19.9776901 163.688693,21.1702123 C163.688693,22.2143609 162.985049,22.7258729 161.579271,22.7258729 C160.02361,22.7258729 159.235972,22.107733 159.235972,20.7019549 L156.125154,20.7019549 C156.125154,23.8761464 157.808064,25.3251791 161.494271,25.3251791 C165.116098,25.3251791 166.884511,23.855022 166.884511,20.8508316 C166.884511,18.1237731 165.712108,16.824623 162.325163,16.3342353" id="Fill-13" fill="#FFFFFF"></path>
                <polygon id="Fill-15" fill="#FFFFFF" points="77.454094 10.5819626 76.2766606 10.5819626 77.454094 13.3090211 77.454094 25.0692722 80.6499128 25.0692722 80.6499128 10.5819626 78.1471752 10.5819626"></polygon>
                <path d="M114.99898,17.2717057 L112.740682,17.2717057 L112.740682,13.3088702 L114.99898,13.3088702 C116.618014,13.3088702 117.299527,13.9053828 117.299527,15.2900365 C117.299527,16.6746901 116.618014,17.2717057 114.99898,17.2717057 M115.276112,10.5818118 L110.237944,10.5818118 L109.544863,10.5818118 L108.367932,10.5818118 L109.544863,13.3088702 L109.544863,25.0691213 L112.740682,25.0691213 L112.740682,19.9987642 L115.276112,19.9987642 C118.940188,19.9987642 120.495345,18.6141105 120.495345,15.3116638 C120.495345,11.9880927 118.940188,10.5818118 115.276112,10.5818118" id="Fill-17" fill="#FFFFFF"></path>
                <polygon id="Fill-19" fill="#FFFFFF" points="123.012367 10.5819626 121.834934 10.5819626 123.012367 13.3090211 123.012367 25.0692722 126.208186 25.0692722 126.208186 10.5819626 123.705448 10.5819626"></polygon>
                <g id="Group-23">
                    <mask id="mask-2" fill="white">
                        <use xlink:href="#path-1"></use>
                    </mask>
                    <g id="Clip-22"></g>
                    <path d="M28.0234179,2.74315325 C24.3658802,-0.914384418 18.4143341,-0.914384418 14.7567964,2.74315325 L0.141231653,17.3587181 L-0.000100592345,17.5000503 L14.7567964,32.2569473 C16.5257128,34.0258637 18.8815856,35.0001006 21.3898557,35.0001006 C23.8986288,35.0001006 26.2545015,34.0258637 28.0234179,32.2569473 L42.6389827,17.6408796 L42.7803149,17.5000503 L28.0234179,2.74315325 Z" id="Fill-21" fill="#A4A4A4" mask="url(#mask-2)"></path>
                </g>
                <path d="M16.0171179,4.00352504 L2.52064299,17.5 L16.0171179,30.996475 C18.9795625,33.9589195 23.8004507,33.9589195 26.7628952,30.996475 L40.2593702,17.5 L26.7628952,4.00352504 C23.8004507,1.04108048 18.9795625,1.04108048 16.0171179,4.00352504" id="Fill-24" fill="#000000"></path>
                <path d="M23.1873906,6.82428529 C21.8409621,5.47785675 19.6530786,5.48288637 18.3006145,6.83535045 L7.63681996,17.498642 L7.97128951,17.8331116 L12.5824426,22.4442647 L14.1215055,23.9838305 L14.5128097,24.3751347 L15.2260094,25.0878315 C15.2260094,25.0878315 14.9448538,24.1105769 16.4129991,22.4749453 L18.6411196,20.2468249 L16.7107525,18.3164578 L23.1763254,11.8508848 C24.5670146,10.4596926 24.5720442,8.20893892 23.1873906,6.82428529" id="Fill-26" fill="#D6972E"></path>
                <path d="M34.806913,17.1645245 L30.1957599,12.5533714 L28.2648898,10.6225014 L27.5647671,9.92237864 C27.5647671,9.92237864 27.8232894,10.824189 26.5427489,12.3451453 L24.1370829,14.7508112 L26.06745,16.6816813 L19.6018771,23.1472543 C18.2106849,24.5379434 18.2056553,26.7886972 19.5908119,28.1733508 C20.9372404,29.5197793 23.1251239,29.5152527 24.477588,28.1622856 L35.1413825,17.4989941 L34.806913,17.1645245 Z" id="Fill-28" fill="#A4A4A4"></path>
                <polygon id="Fill-30" fill="#000000" points="25.7445486 23.2531277 28.2729372 24.3676909 27.158374 21.8393023 28.4907196 19.189197 25.8406143 20.5215426 23.3122257 19.4069794 24.4267889 21.935368 23.0944433 24.5854733"></polygon>
                <polygon id="Fill-32" fill="#000000" points="16.9526268 14.4612058 19.4810154 15.575769 18.3664522 13.0473804 19.6987978 10.3972751 17.0486924 11.7296207 14.5203038 10.6150575 15.634867 13.1434461 14.3025214 15.7935515"></polygon>
            </g>
        </g>
    </g>
</svg>